<?xml version="1.0" encoding="iso-8859-1"?>
<!-- Generator: Adobe Illustrator 19.0.0, SVG Export Plug-In . SVG Version: 6.00 Build 0)  -->
<svg version="1.1" id="Layer_1" xmlns="http://www.w3.org/2000/svg" xmlns:xlink="http://www.w3.org/1999/xlink" x="0px" y="0px"
	 viewBox="0 0 512 512" style="enable-background:new 0 0 512 512;" xml:space="preserve">
<g>
	<path style="fill:#E6E6E6;" d="M344.276,0H167.724c-2.781,0-5.394,1.306-7.062,3.531l-50.317,67.09h291.31l-50.317-67.09
		C349.67,1.306,347.057,0,344.276,0"/>
	<path style="fill:#88C057;" d="M393.611,432.767l20.745-228.237c0.503-5.544-3.858-10.319-9.428-10.319H107.076
		c-5.57,0-9.94,4.776-9.437,10.319l20.754,228.237c0.441,4.882,4.529,8.616,9.428,8.616h256.362
		C389.082,441.383,393.169,437.649,393.611,432.767"/>
	<g>
		<polygon style="fill:#E6E6E6;" points="404.062,194.207 410.48,123.586 101.515,123.586 107.941,194.207 		"/>
		<path style="fill:#E6E6E6;" d="M130.407,441.379l5.694,62.596c0.406,4.546,4.22,8.024,8.792,8.024H367.11
			c4.564,0,8.377-3.478,8.792-8.024l5.694-62.596H130.407z"/>
	</g>
	<path style="fill:#F9DA49;" d="M331.034,247.172c-4.882,0-8.828-3.955-8.828-8.828V123.586c0-4.873,3.946-8.828,8.828-8.828
		s8.828,3.955,8.828,8.828v114.759C339.862,243.218,335.916,247.172,331.034,247.172"/>
	<path style="fill:#D2D5D7;" d="M428.138,123.586H83.862c-4.873,0-8.828-3.955-8.828-8.828v-35.31c0-4.873,3.955-8.828,8.828-8.828
		h344.276c4.873,0,8.828,3.955,8.828,8.828v35.31C436.966,119.631,433.011,123.586,428.138,123.586"/>
	<polygon style="fill:#F9DA49;" points="366.345,335.448 295.724,335.448 295.724,256 331.034,220.69 366.345,256 	"/>
</g>
<g>
</g>
<g>
</g>
<g>
</g>
<g>
</g>
<g>
</g>
<g>
</g>
<g>
</g>
<g>
</g>
<g>
</g>
<g>
</g>
<g>
</g>
<g>
</g>
<g>
</g>
<g>
</g>
<g>
</g>
</svg>
